<svg id="Layer_1" data-name="Layer 1" xmlns="http://www.w3.org/2000/svg" viewBox="0 0 725.25 222.15"><defs><style>.cls-1,.cls-2{fill:none;stroke:#000;stroke-linecap:round;stroke-linejoin:round;}.cls-1{stroke-width:19px;}.cls-2{stroke-width:21px;}</style></defs><title>mm</title><path d="M1.62,24.69a3.85,3.85,0,0,1,1.71-.87,8.46,8.46,0,0,1,1.72-.19h9.42a4.29,4.29,0,0,1,1.93.41,4.18,4.18,0,0,1,1.37,1.09,5.76,5.76,0,0,1,.9,1.56q.34.87.66,1.8L20.65,34a19.13,19.13,0,0,1,2.68-4,18.91,18.91,0,0,1,4.43-3.73,25.6,25.6,0,0,1,6.39-2.77,31.1,31.1,0,0,1,8.7-1.09,30.39,30.39,0,0,1,7.14.78,22.17,22.17,0,0,1,5.86,2.3,22.65,22.65,0,0,1,4.83,3.73,35.23,35.23,0,0,1,4.12,5.07,19.19,19.19,0,0,1,3.52-4,28.16,28.16,0,0,1,5.58-3.86,35.58,35.58,0,0,1,7.24-2.86,31.3,31.3,0,0,1,8.48-1.12A26.72,26.72,0,0,1,102,25.13a25.37,25.37,0,0,1,8.83,7.46,33,33,0,0,1,5.27,11,50.48,50.48,0,0,1,1.75,13.49V98a5.42,5.42,0,0,1-1,3.59,4.06,4.06,0,0,1-3.27,1.22H99.18q-2.68,0-3.68-.9t-1-3.52V57.14a14.45,14.45,0,0,0-.84-5,12.65,12.65,0,0,0-2.34-4,10.49,10.49,0,0,0-3.65-2.68,11.51,11.51,0,0,0-4.77-1,11,11,0,0,0-4.49.94A12,12,0,0,0,74.67,48a12.37,12.37,0,0,0-2.59,4,13.34,13.34,0,0,0-1,5.15V98a5.42,5.42,0,0,1-1,3.59,4.06,4.06,0,0,1-3.27,1.22H52.4q-2.68,0-3.68-.9t-1-3.52V57.14a15.51,15.51,0,0,0-.78-5,12.09,12.09,0,0,0-2.25-4,10.33,10.33,0,0,0-3.56-2.68,11.09,11.09,0,0,0-4.71-1,11.26,11.26,0,0,0-4.4.9,12.55,12.55,0,0,0-3.87,2.56,14.34,14.34,0,0,0-2.87,4A13.26,13.26,0,0,0,24,57V98.18a5.89,5.89,0,0,1-.41,2.12,3.37,3.37,0,0,1-1.22,1.62,5.72,5.72,0,0,1-1.53.69,6.62,6.62,0,0,1-1.65.19H5.05a5,5,0,0,1-3.87-1.31A5,5,0,0,1,0,98V28.24a4.56,4.56,0,0,1,.53-2.18A3.91,3.91,0,0,1,2,24.51Z"/><path d="M373.14,95a39,39,0,0,1-3.84,3.34,31.26,31.26,0,0,1-4.68,3,28.28,28.28,0,0,1-5.43,2.12,22.75,22.75,0,0,1-6.14.81,38,38,0,0,1-15.63-3.18,37.39,37.39,0,0,1-12.29-8.7,40.08,40.08,0,0,1-8-13,44.16,44.16,0,0,1-2.9-16.09,44.08,44.08,0,0,1,2.9-16.12,40.17,40.17,0,0,1,8-13,37,37,0,0,1,12.29-8.67,38.31,38.31,0,0,1,15.63-3.15,30.77,30.77,0,0,1,6.27.59,22.24,22.24,0,0,1,9.48,4.4,33.8,33.8,0,0,1,3.71,3.43v-26a4.9,4.9,0,0,1,1.22-3.37A4.62,4.62,0,0,1,377.38,0h14a4.85,4.85,0,0,1,1.72.34,5.78,5.78,0,0,1,1.65,1A5,5,0,0,1,396,2.81a4,4,0,0,1,.47,1.93V98q0,4.8-5.05,4.8H379.19a4.79,4.79,0,0,1-1.93-.31,3.06,3.06,0,0,1-1.15-.9,6.27,6.27,0,0,1-.84-1.5q-.37-.9-.94-2.09ZM336.65,63.25a22.77,22.77,0,0,0,1.28,7.7,18.24,18.24,0,0,0,3.65,6.21,17.32,17.32,0,0,0,5.71,4.15,17.53,17.53,0,0,0,7.39,1.53,19.73,19.73,0,0,0,7.52-1.44,19.16,19.16,0,0,0,6.14-4,19.77,19.77,0,0,0,6-13.32v-.87a19.71,19.71,0,0,0-1.5-7.61,20.2,20.2,0,0,0-4.15-6.36,19.68,19.68,0,0,0-6.24-4.33,18.94,18.94,0,0,0-7.77-1.59,17,17,0,0,0-7.39,1.59,17.27,17.27,0,0,0-5.71,4.33,19.63,19.63,0,0,0-3.65,6.36A22.67,22.67,0,0,0,336.65,63.25Z"/><path d="M414.68,24.69a3.85,3.85,0,0,1,1.71-.87,8.46,8.46,0,0,1,1.72-.19h9.42a4.29,4.29,0,0,1,1.93.41,4.18,4.18,0,0,1,1.37,1.09,5.76,5.76,0,0,1,.9,1.56q.34.87.66,1.8L433.7,34a19.13,19.13,0,0,1,2.68-4,18.91,18.91,0,0,1,4.43-3.73,25.6,25.6,0,0,1,6.39-2.77,31.1,31.1,0,0,1,8.7-1.09,30.39,30.39,0,0,1,7.14.78,22.17,22.17,0,0,1,5.86,2.3,22.65,22.65,0,0,1,4.83,3.73,35.23,35.23,0,0,1,4.12,5.07,19.19,19.19,0,0,1,3.52-4A28.16,28.16,0,0,1,487,26.37a35.58,35.58,0,0,1,7.24-2.86,31.3,31.3,0,0,1,8.48-1.12,26.72,26.72,0,0,1,12.41,2.74,25.37,25.37,0,0,1,8.83,7.46,33,33,0,0,1,5.27,11A50.48,50.48,0,0,1,531,57.14V98a5.42,5.42,0,0,1-1,3.59,4.06,4.06,0,0,1-3.27,1.22H512.24q-2.68,0-3.68-.9t-1-3.52V57.14a14.45,14.45,0,0,0-.84-5,12.65,12.65,0,0,0-2.34-4,10.49,10.49,0,0,0-3.65-2.68,11.51,11.51,0,0,0-4.77-1,11,11,0,0,0-4.49.94A12,12,0,0,0,487.72,48a12.37,12.37,0,0,0-2.59,4,13.34,13.34,0,0,0-1,5.15V98a5.42,5.42,0,0,1-1,3.59,4.06,4.06,0,0,1-3.27,1.22H465.45q-2.68,0-3.68-.9t-1-3.52V57.14a15.51,15.51,0,0,0-.78-5,12.09,12.09,0,0,0-2.25-4,10.33,10.33,0,0,0-3.56-2.68,11.09,11.09,0,0,0-4.71-1,11.26,11.26,0,0,0-4.4.9,12.55,12.55,0,0,0-3.87,2.56,14.34,14.34,0,0,0-2.87,4A13.26,13.26,0,0,0,437,57V98.18a5.89,5.89,0,0,1-.41,2.12,3.37,3.37,0,0,1-1.22,1.62,5.72,5.72,0,0,1-1.53.69,6.62,6.62,0,0,1-1.65.19h-14.1a4.39,4.39,0,0,1-5.05-4.8V28.24a4.56,4.56,0,0,1,.53-2.18,3.91,3.91,0,0,1,1.47-1.56Z"/><path d="M627.51,98.18a5.55,5.55,0,0,1-.37,2,4.9,4.9,0,0,1-2.87,2.4,8.49,8.49,0,0,1-1.62.19H610.36a5.52,5.52,0,0,1-2.12-.34,3.26,3.26,0,0,1-1.31-1,5.56,5.56,0,0,1-.84-1.53q-.34-.9-.72-2l-.81-2.81a36.38,36.38,0,0,1-3.84,3.31,29.63,29.63,0,0,1-10.29,5,24.06,24.06,0,0,1-6.14.78,40.81,40.81,0,0,1-10.88-1.43,40,40,0,0,1-17.93-10.45A40.67,40.67,0,0,1,545,74.26a41.71,41.71,0,0,1-1.43-11,40.89,40.89,0,0,1,11.85-29.1,40.39,40.39,0,0,1,28.82-11.82,28.4,28.4,0,0,1,7.2.87,27.55,27.55,0,0,1,6.11,2.37,24.23,24.23,0,0,1,5,3.59,27.76,27.76,0,0,1,3.93,4.52L608.36,28q.62-1.56,1-2.53a4.5,4.5,0,0,1,.87-1.43,2.33,2.33,0,0,1,1.15-.62,9.32,9.32,0,0,1,1.93-.16h9.29a8.49,8.49,0,0,1,1.62.19,3.12,3.12,0,0,1,1.62.87,4,4,0,0,1,1.25,1.56,5,5,0,0,1,.37,2ZM566.07,63.25a22.75,22.75,0,0,0,1.28,7.7A18.26,18.26,0,0,0,571,77.16a17.32,17.32,0,0,0,5.71,4.15,17.53,17.53,0,0,0,7.39,1.53,19.6,19.6,0,0,0,7.77-1.53,19.86,19.86,0,0,0,6.24-4.15A18.8,18.8,0,0,0,602.25,71a20.33,20.33,0,0,0,0-15.31,20.19,20.19,0,0,0-4.15-6.36,19.69,19.69,0,0,0-6.24-4.33,18.94,18.94,0,0,0-7.77-1.59,17,17,0,0,0-7.39,1.59A17.27,17.27,0,0,0,571,49.28a19.65,19.65,0,0,0-3.65,6.36A22.65,22.65,0,0,0,566.07,63.25Z"/><path d="M644.1,24.33a3.87,3.87,0,0,1,1.68-.87,8.08,8.08,0,0,1,1.68-.19h9.42a4.55,4.55,0,0,1,2,.37,3.46,3.46,0,0,1,1.28,1,6.52,6.52,0,0,1,.84,1.5q.34.84.65,1.84l2.62,7.55Q666,33.31,667.77,31A23.22,23.22,0,0,1,672,26.73a21.42,21.42,0,0,1,5.8-3.15A23.84,23.84,0,0,1,686,22.33a38.91,38.91,0,0,1,15.75,3.15,37.52,37.52,0,0,1,12.41,8.67,40.06,40.06,0,0,1,8.14,13,43.67,43.67,0,0,1,2.93,16.12,43.75,43.75,0,0,1-2.93,16.09,40,40,0,0,1-8.14,13,37.91,37.91,0,0,1-12.41,8.7A38.57,38.57,0,0,1,686,104.23a22.4,22.4,0,0,1-7-1,20.48,20.48,0,0,1-5.21-2.53,23.94,23.94,0,0,1-4-3.43q-1.75-1.87-3.43-3.74v29.07a4.72,4.72,0,0,1-1.12,3.18,4.36,4.36,0,0,1-3.49,1.31H647.47a4.87,4.87,0,0,1-1.62-.31,6.14,6.14,0,0,1-1.62-.87,4.77,4.77,0,0,1-1.25-1.4,3.65,3.65,0,0,1-.5-1.9V27.88a4.08,4.08,0,0,1,.47-2.06A7.2,7.2,0,0,1,644.1,24.33Zm58.26,38.92a21.93,21.93,0,0,0-1.31-7.58,19.44,19.44,0,0,0-3.68-6.27,17.41,17.41,0,0,0-5.68-4.24,16.91,16.91,0,0,0-7.3-1.56,19.23,19.23,0,0,0-7.45,1.47,20,20,0,0,0-6.17,4,20.3,20.3,0,0,0-4.3,6,18.74,18.74,0,0,0-1.84,7.3v.94A19.32,19.32,0,0,0,666.18,71a19.63,19.63,0,0,0,4.24,6.27,20.27,20.27,0,0,0,6.3,4.21A19.16,19.16,0,0,0,684.4,83a16.89,16.89,0,0,0,7.3-1.56,17.6,17.6,0,0,0,5.68-4.21A19,19,0,0,0,701.05,71,22.54,22.54,0,0,0,702.36,63.25Z"/><path class="cls-1" d="M135.89,60.28s1.19,36.31,36.31,36.31c0,0,33.87.73,36.31-36.31"/><path class="cls-2" d="M139.22,131.51s2.63,80.15,80.15,80.15c0,0,74.77,1.6,80.15-80.15"/><path d="M264.87,23.69c15.22.38,27.31,7,34.79,20.51,7.81,14.07,7.36,28.66-1,42.44-3.44,5.69-8.06,10.72-12.52,15.71-7.31,8.18-14.22,16.58-18.56,26.81a4.15,4.15,0,0,1-2.67,2.35,3.76,3.76,0,0,1-2.91-1.95c-5.67-13.73-16.14-23.89-25.57-34.84-13.11-15.23-15.72-33.61-6.82-49.78C237.17,31.25,249,24.21,264.87,23.69Zm-.34,61.55a21.31,21.31,0,0,0,21.53-21.09,21.34,21.34,0,1,0-42.68-.39A21.26,21.26,0,0,0,264.53,85.24Z"/></svg>